<svg xmlns="http://www.w3.org/2000/svg" viewBox="0 0 512 512" width="512" height="512" role="img" aria-label="cf-activity-relay">
	<defs>
		<linearGradient id="bg" x1="0" y1="0" x2="1" y2="1">
			<stop offset="0" stop-color="#171438"/>
			<stop offset="0.52" stop-color="#4338ca"/>
			<stop offset="1" stop-color="#0891b2"/>
		</linearGradient>
		<linearGradient id="hub" x1="0" y1="0" x2="1" y2="1">
			<stop offset="0" stop-color="#e0f2fe"/>
			<stop offset="1" stop-color="#a5b4fc"/>
		</linearGradient>
		<radialGradient id="aura" cx="0.5" cy="0.5" r="0.5">
			<stop offset="0" stop-color="#22d3ee" stop-opacity="0.55"/>
			<stop offset="1" stop-color="#22d3ee" stop-opacity="0"/>
		</radialGradient>
	</defs>
	<rect width="512" height="512" rx="116" fill="url(#bg)"/>
	<circle cx="256" cy="256" r="196" fill="url(#aura)"/>
	<circle cx="256" cy="256" r="172" fill="none" stroke="#ffffff" stroke-opacity="0.16" stroke-width="5"/>
	<circle cx="256" cy="256" r="128" fill="none" stroke="#ffffff" stroke-opacity="0.10" stroke-width="4"/>
	<g stroke="#ffffff" stroke-opacity="0.82" stroke-width="11" stroke-linecap="round">
		<line x1="256" y1="256" x2="256" y2="106"/>
		<line x1="256" y1="256" x2="386" y2="181"/>
		<line x1="256" y1="256" x2="386" y2="331"/>
		<line x1="256" y1="256" x2="256" y2="406"/>
		<line x1="256" y1="256" x2="126" y2="331"/>
		<line x1="256" y1="256" x2="126" y2="181"/>
	</g>
	<g fill="#ffffff">
		<circle cx="386" cy="181" r="24"/>
		<circle cx="386" cy="331" r="24"/>
		<circle cx="256" cy="406" r="24"/>
		<circle cx="126" cy="331" r="24"/>
		<circle cx="126" cy="181" r="24"/>
	</g>
	<circle cx="256" cy="106" r="30" fill="#67e8f9"/>
	<circle cx="256" cy="106" r="13" fill="#0e7490"/>
	<circle cx="256" cy="256" r="58" fill="url(#hub)"/>
	<circle cx="256" cy="256" r="26" fill="#312e81"/>
</svg>
